<svg width="206" height="107" viewBox="0 0 206 107" fill="none" xmlns="http://www.w3.org/2000/svg">
<path d="M14.6591 68.9091H18.1818V89.7045C18.1818 91.5606 17.8409 93.1373 17.1591 94.4347C16.4773 95.732 15.5161 96.7169 14.2756 97.3892C13.035 98.0616 11.572 98.3977 9.88636 98.3977C8.29545 98.3977 6.87973 98.1089 5.6392 97.5312C4.39867 96.9441 3.4233 96.1108 2.71307 95.0312C2.00284 93.9517 1.64773 92.6686 1.64773 91.1818H5.11364C5.11364 92.0057 5.31723 92.7254 5.72443 93.3409C6.1411 93.947 6.70928 94.4205 7.42898 94.7614C8.14867 95.1023 8.9678 95.2727 9.88636 95.2727C10.8996 95.2727 11.7614 95.0597 12.4716 94.6335C13.1818 94.2074 13.7216 93.5824 14.0909 92.7585C14.4697 91.9252 14.6591 90.9072 14.6591 89.7045V68.9091ZM26.3165 99.1932L24.1574 97.7159L39.3847 75.1591L41.5438 76.6364L26.3165 99.1932ZM32.8506 98.4545C30.8809 98.4545 29.1527 97.9858 27.6659 97.0483C26.1886 96.1108 25.0333 94.7992 24.2 93.1136C23.3761 91.428 22.9642 89.4583 22.9642 87.2045C22.9642 84.9318 23.3761 82.9479 24.2 81.2528C25.0333 79.5578 26.1886 78.2415 27.6659 77.304C29.1527 76.3665 30.8809 75.8977 32.8506 75.8977C34.8203 75.8977 36.5438 76.3665 38.021 77.304C39.5078 78.2415 40.6631 79.5578 41.4869 81.2528C42.3203 82.9479 42.7369 84.9318 42.7369 87.2045C42.7369 89.4583 42.3203 91.428 41.4869 93.1136C40.6631 94.7992 39.5078 96.1108 38.021 97.0483C36.5438 97.9858 34.8203 98.4545 32.8506 98.4545ZM32.8506 95.4432C34.3468 95.4432 35.5778 95.0597 36.5438 94.2926C37.5097 93.5256 38.2246 92.517 38.6886 91.267C39.1527 90.017 39.3847 88.6629 39.3847 87.2045C39.3847 85.7462 39.1527 84.3873 38.6886 83.1278C38.2246 81.8684 37.5097 80.8504 36.5438 80.0739C35.5778 79.2973 34.3468 78.9091 32.8506 78.9091C31.3544 78.9091 30.1233 79.2973 29.1574 80.0739C28.1915 80.8504 27.4765 81.8684 27.0125 83.1278C26.5485 84.3873 26.3165 85.7462 26.3165 87.2045C26.3165 88.6629 26.5485 90.017 27.0125 91.267C27.4765 92.517 28.1915 93.5256 29.1574 94.2926C30.1233 95.0597 31.3544 95.4432 32.8506 95.4432ZM47.0541 98V76.1818H50.2928V79.4773H50.52C50.9178 78.3977 51.6375 77.5218 52.6791 76.8494C53.7208 76.1771 54.895 75.8409 56.2018 75.8409C56.4481 75.8409 56.7558 75.8456 57.1251 75.8551C57.4945 75.8646 57.7738 75.8788 57.9632 75.8977V79.3068C57.8496 79.2784 57.5892 79.2358 57.182 79.179C56.7842 79.1127 56.3628 79.0795 55.9178 79.0795C54.8572 79.0795 53.9102 79.3021 53.0768 79.7472C52.253 80.1828 51.5996 80.7888 51.1166 81.5653C50.6431 82.3324 50.4064 83.2083 50.4064 84.1932V98H47.0541ZM69.2797 106.636C67.6604 106.636 66.2683 106.428 65.1035 106.011C63.9388 105.604 62.9681 105.064 62.1916 104.392C61.4246 103.729 60.8138 103.019 60.3592 102.261L63.0297 100.386C63.3327 100.784 63.7162 101.239 64.1803 101.75C64.6443 102.271 65.2787 102.721 66.0837 103.099C66.8981 103.488 67.9634 103.682 69.2797 103.682C71.0411 103.682 72.4946 103.256 73.6405 102.403C74.7863 101.551 75.3592 100.216 75.3592 98.3977V93.9659H75.0751C74.8289 94.3636 74.4786 94.8561 74.024 95.4432C73.5789 96.0208 72.935 96.5369 72.0922 96.9915C71.2589 97.4366 70.132 97.6591 68.7115 97.6591C66.9501 97.6591 65.3687 97.2424 63.9672 96.4091C62.5751 95.5758 61.4719 94.3636 60.6575 92.7727C59.8526 91.1818 59.4501 89.25 59.4501 86.9773C59.4501 84.7424 59.8431 82.7964 60.6291 81.1392C61.4151 79.4725 62.5089 78.1847 63.9104 77.2756C65.3119 76.357 66.9312 75.8977 68.7683 75.8977C70.1888 75.8977 71.3157 76.1345 72.149 76.608C72.9918 77.072 73.6357 77.6023 74.0808 78.1989C74.5354 78.786 74.8857 79.2689 75.132 79.6477H75.4729V76.1818H78.7115V98.625C78.7115 100.5 78.2854 102.025 77.4331 103.199C76.5903 104.383 75.4539 105.249 74.024 105.798C72.6035 106.357 71.0221 106.636 69.2797 106.636ZM69.166 94.6477C70.5107 94.6477 71.6471 94.34 72.5751 93.7244C73.5032 93.1089 74.2087 92.2235 74.6916 91.0682C75.1746 89.9129 75.416 88.5303 75.416 86.9205C75.416 85.3485 75.1793 83.9612 74.7058 82.7585C74.2323 81.5559 73.5316 80.6136 72.6035 79.9318C71.6755 79.25 70.5297 78.9091 69.166 78.9091C67.7456 78.9091 66.5619 79.2689 65.6149 79.9886C64.6774 80.7083 63.9719 81.6742 63.4984 82.8864C63.0344 84.0985 62.8024 85.4432 62.8024 86.9205C62.8024 88.4356 63.0392 89.7756 63.5126 90.9403C63.9956 92.0956 64.7058 93.0047 65.6433 93.6676C66.5903 94.321 67.7645 94.6477 69.166 94.6477ZM93.1956 98.4545C91.0933 98.4545 89.2799 97.9905 87.7553 97.0625C86.2401 96.125 85.0706 94.8182 84.2467 93.142C83.4323 91.4564 83.0251 89.4962 83.0251 87.2614C83.0251 85.0265 83.4323 83.0568 84.2467 81.3523C85.0706 79.6383 86.2164 78.303 87.6842 77.3466C89.1615 76.3807 90.885 75.8977 92.8547 75.8977C93.9911 75.8977 95.1132 76.0871 96.2212 76.4659C97.3291 76.8447 98.3376 77.4602 99.2467 78.3125C100.156 79.1553 100.88 80.2727 101.42 81.6648C101.96 83.0568 102.23 84.7708 102.23 86.8068V88.2273H85.4115V85.3295H98.8206C98.8206 84.0985 98.5744 83 98.082 82.0341C97.599 81.0682 96.9077 80.3059 96.0081 79.7472C95.1179 79.1884 94.0668 78.9091 92.8547 78.9091C91.5195 78.9091 90.3642 79.2405 89.3888 79.9034C88.4229 80.5568 87.6795 81.4091 87.1587 82.4602C86.6378 83.5114 86.3774 84.6383 86.3774 85.8409V87.7727C86.3774 89.4205 86.6615 90.8172 87.2297 91.9631C87.8073 93.0994 88.6075 93.9659 89.6303 94.5625C90.653 95.1496 91.8414 95.4432 93.1956 95.4432C94.0763 95.4432 94.8717 95.3201 95.582 95.0739C96.3017 94.8182 96.9219 94.4394 97.4428 93.9375C97.9636 93.4261 98.3661 92.7917 98.6501 92.0341L101.889 92.9432C101.548 94.0417 100.975 95.0076 100.17 95.8409C99.3651 96.6648 98.3708 97.3087 97.1871 97.7727C96.0034 98.2273 94.6729 98.4545 93.1956 98.4545ZM109.881 84.875V98H106.529V76.1818H109.768V79.5909H110.052C110.563 78.483 111.34 77.5928 112.381 76.9205C113.423 76.2386 114.768 75.8977 116.415 75.8977C117.893 75.8977 119.185 76.2008 120.293 76.8068C121.401 77.4034 122.263 78.3125 122.879 79.5341C123.494 80.7462 123.802 82.2803 123.802 84.1364V98H120.45V84.3636C120.45 82.6496 120.004 81.3144 119.114 80.358C118.224 79.392 117.003 78.9091 115.45 78.9091C114.379 78.9091 113.423 79.1411 112.58 79.6051C111.747 80.0691 111.089 80.7462 110.606 81.6364C110.123 82.5265 109.881 83.6061 109.881 84.875ZM144.582 81.0682L141.571 81.9205C141.381 81.4186 141.102 80.9309 140.733 80.4574C140.373 79.9744 139.88 79.5767 139.255 79.2642C138.63 78.9517 137.83 78.7955 136.855 78.7955C135.52 78.7955 134.407 79.1032 133.517 79.7188C132.636 80.3248 132.196 81.0966 132.196 82.0341C132.196 82.8674 132.499 83.5256 133.105 84.0085C133.711 84.4915 134.658 84.8939 135.946 85.2159L139.184 86.0114C141.135 86.4848 142.589 87.2093 143.545 88.1847C144.502 89.1506 144.98 90.3958 144.98 91.9205C144.98 93.1705 144.62 94.2879 143.9 95.2727C143.19 96.2576 142.196 97.0341 140.917 97.6023C139.639 98.1705 138.152 98.4545 136.457 98.4545C134.232 98.4545 132.39 97.9716 130.932 97.0057C129.473 96.0398 128.55 94.6288 128.162 92.7727L131.343 91.9773C131.646 93.1515 132.219 94.0322 133.062 94.6193C133.914 95.2064 135.027 95.5 136.4 95.5C137.963 95.5 139.203 95.1686 140.122 94.5057C141.05 93.8333 141.514 93.0284 141.514 92.0909C141.514 91.3333 141.249 90.6989 140.718 90.1875C140.188 89.6667 139.374 89.2784 138.275 89.0227L134.639 88.1705C132.641 87.697 131.173 86.9631 130.236 85.9688C129.307 84.965 128.843 83.7102 128.843 82.2045C128.843 80.9735 129.189 79.8845 129.88 78.9375C130.581 77.9905 131.533 77.2472 132.736 76.7074C133.948 76.1676 135.321 75.8977 136.855 75.8977C139.014 75.8977 140.709 76.3712 141.94 77.3182C143.181 78.2652 144.061 79.5152 144.582 81.0682ZM158.374 98.4545C156.271 98.4545 154.458 97.9905 152.933 97.0625C151.418 96.125 150.249 94.8182 149.425 93.142C148.61 91.4564 148.203 89.4962 148.203 87.2614C148.203 85.0265 148.61 83.0568 149.425 81.3523C150.249 79.6383 151.395 78.303 152.862 77.3466C154.34 76.3807 156.063 75.8977 158.033 75.8977C159.169 75.8977 160.291 76.0871 161.399 76.4659C162.507 76.8447 163.516 77.4602 164.425 78.3125C165.334 79.1553 166.058 80.2727 166.598 81.6648C167.138 83.0568 167.408 84.7708 167.408 86.8068V88.2273H150.59V85.3295H163.999C163.999 84.0985 163.753 83 163.26 82.0341C162.777 81.0682 162.086 80.3059 161.186 79.7472C160.296 79.1884 159.245 78.9091 158.033 78.9091C156.698 78.9091 155.542 79.2405 154.567 79.9034C153.601 80.5568 152.858 81.4091 152.337 82.4602C151.816 83.5114 151.556 84.6383 151.556 85.8409V87.7727C151.556 89.4205 151.84 90.8172 152.408 91.9631C152.985 93.0994 153.786 93.9659 154.808 94.5625C155.831 95.1496 157.02 95.4432 158.374 95.4432C159.254 95.4432 160.05 95.3201 160.76 95.0739C161.48 94.8182 162.1 94.4394 162.621 93.9375C163.142 93.4261 163.544 92.7917 163.828 92.0341L167.067 92.9432C166.726 94.0417 166.153 95.0076 165.348 95.8409C164.543 96.6648 163.549 97.3087 162.365 97.7727C161.181 98.2273 159.851 98.4545 158.374 98.4545ZM175.06 84.875V98H171.707V76.1818H174.946V79.5909H175.23C175.741 78.483 176.518 77.5928 177.56 76.9205C178.601 76.2386 179.946 75.8977 181.594 75.8977C183.071 75.8977 184.364 76.2008 185.471 76.8068C186.579 77.4034 187.441 78.3125 188.057 79.5341C188.672 80.7462 188.98 82.2803 188.98 84.1364V98H185.628V84.3636C185.628 82.6496 185.183 81.3144 184.292 80.358C183.402 79.392 182.181 78.9091 180.628 78.9091C179.558 78.9091 178.601 79.1411 177.758 79.6051C176.925 80.0691 176.267 80.7462 175.784 81.6364C175.301 82.5265 175.06 83.6061 175.06 84.875Z" fill="black"/>
<path d="M23.5227 64V34.9091H33.3523C35.6345 34.9091 37.5 35.321 38.9489 36.1449C40.4072 36.9593 41.4867 38.0625 42.1875 39.4545C42.8883 40.8466 43.2386 42.3996 43.2386 44.1136C43.2386 45.8277 42.8883 47.3854 42.1875 48.7869C41.4962 50.1884 40.4261 51.3059 38.9773 52.1392C37.5284 52.9631 35.6723 53.375 33.4091 53.375H26.3636V50.25H33.2955C34.858 50.25 36.1127 49.9801 37.0597 49.4403C38.0066 48.9006 38.6932 48.1714 39.1193 47.2528C39.5549 46.3248 39.7727 45.2784 39.7727 44.1136C39.7727 42.9489 39.5549 41.9072 39.1193 40.9886C38.6932 40.0701 38.0019 39.3504 37.0455 38.8295C36.089 38.2992 34.8201 38.0341 33.2386 38.0341H27.0455V64H23.5227ZM56.5722 64.4545C54.4699 64.4545 52.6564 63.9905 51.1318 63.0625C49.6167 62.125 48.4472 60.8182 47.6233 59.142C46.8089 57.4564 46.4017 55.4962 46.4017 53.2614C46.4017 51.0265 46.8089 49.0568 47.6233 47.3523C48.4472 45.6383 49.593 44.303 51.0608 43.3466C52.5381 42.3807 54.2616 41.8977 56.2313 41.8977C57.3676 41.8977 58.4898 42.0871 59.5977 42.4659C60.7057 42.8447 61.7142 43.4602 62.6233 44.3125C63.5324 45.1553 64.2568 46.2727 64.7966 47.6648C65.3364 49.0568 65.6063 50.7708 65.6063 52.8068V54.2273H48.7881V51.3295H62.1972C62.1972 50.0985 61.9509 49 61.4585 48.0341C60.9756 47.0682 60.2843 46.3059 59.3847 45.7472C58.4945 45.1884 57.4434 44.9091 56.2313 44.9091C54.896 44.9091 53.7407 45.2405 52.7653 45.9034C51.7994 46.5568 51.0561 47.4091 50.5352 48.4602C50.0144 49.5114 49.754 50.6383 49.754 51.8409V53.7727C49.754 55.4205 50.0381 56.8172 50.6063 57.9631C51.1839 59.0994 51.9841 59.9659 53.0068 60.5625C54.0295 61.1496 55.218 61.4432 56.5722 61.4432C57.4528 61.4432 58.2483 61.3201 58.9585 61.0739C59.6782 60.8182 60.2985 60.4394 60.8193 59.9375C61.3402 59.4261 61.7426 58.7917 62.0267 58.0341L65.2653 58.9432C64.9244 60.0417 64.3515 61.0076 63.5466 61.8409C62.7417 62.6648 61.7473 63.3087 60.5636 63.7727C59.3799 64.2273 58.0494 64.4545 56.5722 64.4545ZM69.9057 64V42.1818H73.1443V45.4773H73.3716C73.7693 44.3977 74.489 43.5218 75.5307 42.8494C76.5724 42.1771 77.7466 41.8409 79.0534 41.8409C79.2996 41.8409 79.6074 41.8456 79.9767 41.8551C80.346 41.8646 80.6254 41.8788 80.8148 41.8977V45.3068C80.7011 45.2784 80.4407 45.2358 80.0335 45.179C79.6358 45.1127 79.2144 45.0795 78.7693 45.0795C77.7087 45.0795 76.7617 45.3021 75.9284 45.7472C75.1045 46.1828 74.4511 46.7888 73.9682 47.5653C73.4947 48.3324 73.258 49.2083 73.258 50.1932V64H69.9057ZM94.893 64V34.9091H98.4158V60.875H111.938V64H94.893ZM129.888 55.0795V42.1818H133.241V64H129.888V60.3068H129.661C129.15 61.4148 128.354 62.357 127.275 63.1335C126.195 63.9006 124.832 64.2841 123.184 64.2841C121.82 64.2841 120.608 63.9858 119.548 63.3892C118.487 62.7831 117.654 61.8741 117.048 60.6619C116.442 59.4403 116.138 57.9015 116.138 56.0455V42.1818H119.491V55.8182C119.491 57.4091 119.936 58.678 120.826 59.625C121.726 60.572 122.871 61.0455 124.263 61.0455C125.097 61.0455 125.944 60.8324 126.806 60.4062C127.677 59.9801 128.406 59.3267 128.994 58.446C129.59 57.5653 129.888 56.4432 129.888 55.0795ZM141.933 50.875V64H138.581V42.1818H141.819V45.5909H142.103C142.615 44.483 143.391 43.5928 144.433 42.9205C145.475 42.2386 146.819 41.8977 148.467 41.8977C149.944 41.8977 151.237 42.2008 152.345 42.8068C153.453 43.4034 154.315 44.3125 154.93 45.5341C155.546 46.7462 155.853 48.2803 155.853 50.1364V64H152.501V50.3636C152.501 48.6496 152.056 47.3144 151.166 46.358C150.276 45.392 149.054 44.9091 147.501 44.9091C146.431 44.9091 145.475 45.1411 144.632 45.6051C143.798 46.0691 143.14 46.7462 142.657 47.6364C142.174 48.5265 141.933 49.6061 141.933 50.875ZM169.418 64.4545C167.6 64.4545 165.994 63.9953 164.602 63.0767C163.21 62.1487 162.121 60.8419 161.335 59.1562C160.549 57.4612 160.156 55.4583 160.156 53.1477C160.156 50.8561 160.549 48.8674 161.335 47.1818C162.121 45.4962 163.215 44.1941 164.617 43.2756C166.018 42.357 167.637 41.8977 169.475 41.8977C170.895 41.8977 172.017 42.1345 172.841 42.608C173.674 43.072 174.309 43.6023 174.744 44.1989C175.19 44.786 175.535 45.2689 175.781 45.6477H176.065V34.9091H179.418V64H176.179V60.6477H175.781C175.535 61.0455 175.185 61.5473 174.73 62.1534C174.276 62.75 173.627 63.285 172.784 63.7585C171.941 64.2225 170.819 64.4545 169.418 64.4545ZM169.872 61.4432C171.217 61.4432 172.353 61.0928 173.281 60.392C174.209 59.6818 174.915 58.7017 175.398 57.4517C175.881 56.1922 176.122 54.7386 176.122 53.0909C176.122 51.4621 175.886 50.0369 175.412 48.8153C174.939 47.5843 174.238 46.6278 173.31 45.946C172.382 45.2547 171.236 44.9091 169.872 44.9091C168.452 44.9091 167.268 45.2737 166.321 46.0028C165.384 46.7225 164.678 47.7027 164.205 48.9432C163.741 50.1742 163.509 51.5568 163.509 53.0909C163.509 54.6439 163.745 56.0549 164.219 57.3239C164.702 58.5833 165.412 59.5871 166.35 60.3352C167.297 61.0739 168.471 61.4432 169.872 61.4432ZM194.371 64.4545C192.268 64.4545 190.455 63.9905 188.93 63.0625C187.415 62.125 186.246 60.8182 185.422 59.142C184.607 57.4564 184.2 55.4962 184.2 53.2614C184.2 51.0265 184.607 49.0568 185.422 47.3523C186.246 45.6383 187.391 44.303 188.859 43.3466C190.337 42.3807 192.06 41.8977 194.03 41.8977C195.166 41.8977 196.288 42.0871 197.396 42.4659C198.504 42.8447 199.513 43.4602 200.422 44.3125C201.331 45.1553 202.055 46.2727 202.595 47.6648C203.135 49.0568 203.405 50.7708 203.405 52.8068V54.2273H186.587V51.3295H199.996C199.996 50.0985 199.749 49 199.257 48.0341C198.774 47.0682 198.083 46.3059 197.183 45.7472C196.293 45.1884 195.242 44.9091 194.03 44.9091C192.694 44.9091 191.539 45.2405 190.564 45.9034C189.598 46.5568 188.855 47.4091 188.334 48.4602C187.813 49.5114 187.552 50.6383 187.552 51.8409V53.7727C187.552 55.4205 187.837 56.8172 188.405 57.9631C188.982 59.0994 189.783 59.9659 190.805 60.5625C191.828 61.1496 193.016 61.4432 194.371 61.4432C195.251 61.4432 196.047 61.3201 196.757 61.0739C197.477 60.8182 198.097 60.4394 198.618 59.9375C199.139 59.4261 199.541 58.7917 199.825 58.0341L203.064 58.9432C202.723 60.0417 202.15 61.0076 201.345 61.8409C200.54 62.6648 199.546 63.3087 198.362 63.7727C197.178 64.2273 195.848 64.4545 194.371 64.4545Z" fill="#2D2D2D"/>
<path d="M19.4318 8.18182C19.2614 6.74242 18.5701 5.625 17.358 4.82955C16.1458 4.03409 14.6591 3.63636 12.8977 3.63636C11.6098 3.63636 10.483 3.8447 9.51705 4.26136C8.56061 4.67803 7.8125 5.25095 7.27273 5.98011C6.74242 6.70928 6.47727 7.53788 6.47727 8.46591C6.47727 9.24242 6.66193 9.91004 7.03125 10.4688C7.41004 11.018 7.89299 11.4773 8.48011 11.8466C9.06723 12.2064 9.68277 12.5047 10.3267 12.7415C10.9706 12.9687 11.5625 13.1534 12.1023 13.2955L15.0568 14.0909C15.8144 14.2898 16.6572 14.5644 17.5852 14.9148C18.5227 15.2652 19.4176 15.7434 20.2699 16.3494C21.1316 16.946 21.8419 17.7131 22.4006 18.6506C22.9593 19.5881 23.2386 20.7386 23.2386 22.1023C23.2386 23.6742 22.8267 25.0947 22.0028 26.3636C21.1884 27.6326 19.9953 28.6411 18.4233 29.3892C16.8608 30.1373 14.9621 30.5114 12.7273 30.5114C10.6439 30.5114 8.83996 30.1752 7.31534 29.5028C5.80019 28.8305 4.60701 27.893 3.7358 26.6903C2.87405 25.4877 2.38636 24.0909 2.27273 22.5H5.90909C6.00379 23.5985 6.37311 24.5076 7.01705 25.2273C7.67045 25.9375 8.49432 26.4678 9.48864 26.8182C10.4924 27.1591 11.572 27.3295 12.7273 27.3295C14.072 27.3295 15.2794 27.1117 16.3494 26.6761C17.4195 26.2311 18.267 25.6155 18.892 24.8295C19.517 24.0341 19.8295 23.1061 19.8295 22.0455C19.8295 21.0795 19.5597 20.2936 19.0199 19.6875C18.4801 19.0814 17.7699 18.589 16.8892 18.2102C16.0085 17.8314 15.0568 17.5 14.0341 17.2159L10.4545 16.1932C8.18182 15.5398 6.38258 14.607 5.05682 13.3949C3.73106 12.1828 3.06818 10.5966 3.06818 8.63636C3.06818 7.00757 3.50852 5.58712 4.3892 4.375C5.27936 3.15341 6.47254 2.20644 7.96875 1.53409C9.47443 0.852272 11.1553 0.511363 13.0114 0.511363C14.8864 0.511363 16.553 0.847537 18.0114 1.51989C19.4697 2.18276 20.625 3.09185 21.4773 4.24716C22.339 5.40246 22.7936 6.71401 22.8409 8.18182H19.4318ZM37.2646 8.18182V11.0227H25.9578V8.18182H37.2646ZM29.2533 2.95455H32.6055V23.75C32.6055 24.697 32.7429 25.4072 33.0175 25.8807C33.3016 26.3447 33.6614 26.6572 34.097 26.8182C34.5421 26.9697 35.0108 27.0455 35.5033 27.0455C35.8726 27.0455 36.1756 27.0265 36.4124 26.9886C36.6491 26.9413 36.8385 26.9034 36.9805 26.875L37.6624 29.8864C37.4351 29.9716 37.1179 30.0568 36.7107 30.142C36.3035 30.2367 35.7874 30.2841 35.1624 30.2841C34.2154 30.2841 33.2874 30.0805 32.3783 29.6733C31.4786 29.2661 30.7305 28.6458 30.1339 27.8125C29.5468 26.9792 29.2533 25.928 29.2533 24.6591V2.95455ZM55.2572 21.0795V8.18182H58.6095V30H55.2572V26.3068H55.03C54.5186 27.4148 53.7232 28.357 52.6436 29.1335C51.5641 29.9006 50.2004 30.2841 48.5527 30.2841C47.1891 30.2841 45.9769 29.9858 44.9163 29.3892C43.8557 28.7831 43.0224 27.8741 42.4163 26.6619C41.8103 25.4403 41.5072 23.9015 41.5072 22.0455V8.18182H44.8595V21.8182C44.8595 23.4091 45.3046 24.678 46.1947 25.625C47.0944 26.572 48.2402 27.0455 49.6322 27.0455C50.4656 27.0455 51.3131 26.8324 52.1749 26.4062C53.0461 25.9801 53.7752 25.3267 54.3624 24.446C54.959 23.5653 55.2572 22.4432 55.2572 21.0795ZM72.1881 30.4545C70.3699 30.4545 68.7648 29.9953 67.3727 29.0767C65.9807 28.1487 64.8917 26.8419 64.1057 25.1562C63.3197 23.4612 62.9267 21.4583 62.9267 19.1477C62.9267 16.8561 63.3197 14.8674 64.1057 13.1818C64.8917 11.4962 65.9854 10.1941 67.3869 9.27557C68.7884 8.35701 70.4078 7.89773 72.2449 7.89773C73.6653 7.89773 74.7875 8.13447 75.6114 8.60795C76.4447 9.07197 77.0792 9.60227 77.5148 10.1989C77.9598 10.786 78.3055 11.2689 78.5517 11.6477H78.8358V0.90909H82.1881V30H78.9494V26.6477H78.5517C78.3055 27.0455 77.9551 27.5473 77.5006 28.1534C77.046 28.75 76.3973 29.285 75.5545 29.7585C74.7117 30.2225 73.5896 30.4545 72.1881 30.4545ZM72.6426 27.4432C73.9873 27.4432 75.1237 27.0928 76.0517 26.392C76.9797 25.6818 77.6852 24.7017 78.1682 23.4517C78.6511 22.1922 78.8926 20.7386 78.8926 19.0909C78.8926 17.4621 78.6559 16.0369 78.1824 14.8153C77.7089 13.5843 77.0081 12.6278 76.0801 11.946C75.1521 11.2547 74.0062 10.9091 72.6426 10.9091C71.2222 10.9091 70.0384 11.2737 69.0915 12.0028C68.154 12.7225 67.4485 13.7027 66.975 14.9432C66.511 16.1742 66.279 17.5568 66.279 19.0909C66.279 20.6439 66.5157 22.0549 66.9892 23.3239C67.4722 24.5833 68.1824 25.5871 69.1199 26.3352C70.0669 27.0739 71.2411 27.4432 72.6426 27.4432ZM87.9932 30V8.18182H91.3455V30H87.9932ZM89.6977 4.54545C89.0443 4.54545 88.4809 4.32292 88.0074 3.87784C87.5434 3.43277 87.3114 2.89773 87.3114 2.27273C87.3114 1.64773 87.5434 1.11269 88.0074 0.667613C88.4809 0.222538 89.0443 0 89.6977 0C90.3511 0 90.9099 0.222538 91.3739 0.667613C91.8474 1.11269 92.0841 1.64773 92.0841 2.27273C92.0841 2.89773 91.8474 3.43277 91.3739 3.87784C90.9099 4.32292 90.3511 4.54545 89.6977 4.54545ZM105.549 30.4545C103.579 30.4545 101.851 29.9858 100.364 29.0483C98.8871 28.1108 97.7318 26.7992 96.8984 25.1136C96.0746 23.428 95.6626 21.4583 95.6626 19.2045C95.6626 16.9318 96.0746 14.9479 96.8984 13.2528C97.7318 11.5578 98.8871 10.2415 100.364 9.30398C101.851 8.36648 103.579 7.89773 105.549 7.89773C107.519 7.89773 109.242 8.36648 110.719 9.30398C112.206 10.2415 113.362 11.5578 114.185 13.2528C115.019 14.9479 115.435 16.9318 115.435 19.2045C115.435 21.4583 115.019 23.428 114.185 25.1136C113.362 26.7992 112.206 28.1108 110.719 29.0483C109.242 29.9858 107.519 30.4545 105.549 30.4545ZM105.549 27.4432C107.045 27.4432 108.276 27.0597 109.242 26.2926C110.208 25.5256 110.923 24.517 111.387 23.267C111.851 22.017 112.083 20.6629 112.083 19.2045C112.083 17.7462 111.851 16.3873 111.387 15.1278C110.923 13.8684 110.208 12.8504 109.242 12.0739C108.276 11.2973 107.045 10.9091 105.549 10.9091C104.053 10.9091 102.822 11.2973 101.856 12.0739C100.89 12.8504 100.175 13.8684 99.7109 15.1278C99.2469 16.3873 99.0149 17.7462 99.0149 19.2045C99.0149 20.6629 99.2469 22.017 99.7109 23.267C100.175 24.517 100.89 25.5256 101.856 26.2926C102.822 27.0597 104.053 27.4432 105.549 27.4432Z" fill="black"/>
</svg>
