<svg width="55" height="54" viewBox="0 0 55 54" fill="none" xmlns="http://www.w3.org/2000/svg">
<path d="M54 21.848H32.1818V13.6662C32.1818 11.9901 32.4943 10.5838 33.1193 9.44744C33.7443 8.30398 34.6037 7.44105 35.6974 6.85866C36.7841 6.26918 38.0199 5.97443 39.4048 5.97443C40.804 5.97443 42.0469 6.26918 43.1335 6.85866C44.2202 7.44815 45.076 8.31818 45.701 9.46875C46.3189 10.6193 46.6278 12.0362 46.6278 13.7195V19.142H43.3786V14.2521C43.3786 13.272 43.2081 12.4695 42.8672 11.8445C42.5263 11.2195 42.0575 10.7578 41.4609 10.4595C40.8643 10.1541 40.179 10.0014 39.4048 10.0014C38.6307 10.0014 37.9489 10.1541 37.3594 10.4595C36.7699 10.7578 36.3118 11.223 35.9851 11.8551C35.6513 12.4801 35.4844 13.2862 35.4844 14.2734V17.8956H54V21.848Z" fill="#2D2D2D"/>
<path d="M22.0092 13.1797C21.9098 12.2493 21.4908 11.5249 20.7521 11.0064C20.0206 10.4879 19.0689 10.2287 17.897 10.2287C17.0732 10.2287 16.3665 10.353 15.777 10.6016C15.1875 10.8501 14.7365 11.1875 14.424 11.6136C14.1115 12.0398 13.9517 12.5263 13.9446 13.0732C13.9446 13.5277 14.0476 13.9219 14.2536 14.2557C14.4666 14.5895 14.7543 14.8736 15.1165 15.108C15.4787 15.3352 15.88 15.527 16.3203 15.6832C16.7607 15.8395 17.2045 15.9709 17.652 16.0774L19.6974 16.5888C20.5213 16.7805 21.3132 17.0398 22.0732 17.3665C22.8402 17.6932 23.5256 18.1051 24.1293 18.6023C24.7401 19.0994 25.223 19.6996 25.5781 20.4027C25.9332 21.1058 26.1108 21.9297 26.1108 22.8743C26.1108 24.1527 25.7841 25.2784 25.1307 26.2514C24.4773 27.2173 23.5327 27.9737 22.2969 28.5206C21.0682 29.0604 19.5803 29.3303 17.8331 29.3303C16.1357 29.3303 14.6619 29.0675 13.4119 28.5419C12.169 28.0163 11.196 27.2493 10.4929 26.2408C9.79688 25.2322 9.42045 24.0036 9.36364 22.5547H13.2521C13.3089 23.3146 13.5433 23.9467 13.9553 24.451C14.3672 24.9553 14.9034 25.3317 15.5639 25.5803C16.2315 25.8288 16.9773 25.9531 17.8011 25.9531C18.6605 25.9531 19.4134 25.8253 20.0597 25.5696C20.7131 25.3068 21.2244 24.9446 21.5938 24.483C21.9631 24.0142 22.1513 23.4673 22.1584 22.8423C22.1513 22.2741 21.9844 21.8054 21.6577 21.4361C21.331 21.0597 20.8729 20.7472 20.2834 20.4986C19.701 20.2429 19.0192 20.0156 18.2379 19.8168L15.7557 19.1776C13.9588 18.7159 12.5384 18.0163 11.4943 17.0788C10.4574 16.1342 9.93892 14.8807 9.93892 13.3182C9.93892 12.0327 10.2869 10.907 10.983 9.94105C11.6861 8.97514 12.6413 8.22585 13.8487 7.69318C15.0561 7.15341 16.4233 6.88352 17.9503 6.88352C19.4986 6.88352 20.8551 7.15341 22.0199 7.69318C23.1918 8.22585 24.1115 8.96804 24.7791 9.91974C25.4467 10.8643 25.7912 11.951 25.8125 13.1797L22.0092 13.1797Z" fill="#2D2D2D"/>
<path d="M29 43.7858L7.18182 43.7858V39.8334L25.6868 39.8334V30.224L29 30.224V43.7858Z" fill="#2D2D2D"/>
<path d="M32.1818 34.2401V30.3196L47.5227 30.3196C48.929 30.3267 50.1399 30.625 51.1555 31.2145C52.1641 31.804 52.9418 32.6278 53.4886 33.6861C54.0284 34.7372 54.2983 35.9624 54.2983 37.3615C54.2983 38.6399 54.071 39.7905 53.6165 40.8132C53.1548 41.8288 52.473 42.6349 51.571 43.2315C50.669 43.8281 49.5469 44.1264 48.2045 44.1264V40.1953C48.794 40.1882 49.3018 40.0604 49.728 39.8118C50.1541 39.5561 50.4808 39.2045 50.7081 38.7571C50.9354 38.3097 51.049 37.7947 51.049 37.2124C51.049 36.5803 50.9176 36.044 50.6548 35.6037C50.3849 35.1634 49.9872 34.8295 49.4616 34.6023C48.9361 34.3679 48.2898 34.2472 47.5227 34.2401L32.1818 34.2401Z" fill="#2D2D2D"/>
</svg>
