<svg width="40" height="41" viewBox="0 0 40 41" fill="none" xmlns="http://www.w3.org/2000/svg">
<path d="M31.1382 11.3274C32.2236 11.3274 33.1035 10.4475 33.1035 9.36205C33.1035 8.27663 32.2236 7.39673 31.1382 7.39673C30.0528 7.39673 29.1729 8.27663 29.1729 9.36205C29.1729 10.4475 30.0528 11.3274 31.1382 11.3274Z" fill="#2D2D2D"/>
<path d="M19.9997 29.6726C25.0656 29.6726 29.1723 25.5659 29.1723 20.5C29.1723 15.4341 25.0656 11.3274 19.9997 11.3274C14.9339 11.3274 10.8271 15.4341 10.8271 20.5C10.8271 25.5659 14.9339 29.6726 19.9997 29.6726Z" stroke="#2D2D2D" stroke-width="2" stroke-miterlimit="10"/>
<path d="M28.7623 1.5H11.2377C5.58304 1.5 1 6.08385 1 11.7385V29.2615C1 34.9161 5.58385 39.5 11.2385 39.5H28.7615C34.4161 39.5 39 34.9161 39 29.2615V11.7385C39 6.08385 34.417 1.5 28.7623 1.5Z" stroke="#2D2D2D" stroke-width="2" stroke-miterlimit="10"/>
</svg>
