<svg width="49" height="38" viewBox="0 0 49 38" fill="none" xmlns="http://www.w3.org/2000/svg">
<path d="M4.39911 37.5C3.14507 37.5 2.09883 37.093 1.26039 36.279C0.421945 35.465 0.00181481 34.4484 0 33.2291V4.77086C0 3.55338 0.42013 2.53764 1.26039 1.72364C2.10065 0.909642 3.14598 0.501762 4.39639 0.5H44.6036C45.8558 0.5 46.9012 0.90788 47.7396 1.72364C48.5781 2.5394 48.9982 3.55514 49 4.77086V33.2318C49 34.4475 48.5799 35.4632 47.7396 36.279C46.8994 37.0948 45.854 37.5018 44.6036 37.5H4.39911ZM24.5 19.3066L2.72222 5.48179V33.2318C2.72222 33.7057 2.8792 34.0951 3.19317 34.3999C3.50713 34.7047 3.90911 34.8571 4.39911 34.8571H44.6036C45.0918 34.8571 45.4929 34.7047 45.8068 34.3999C46.1208 34.0951 46.2778 33.7049 46.2778 33.2291V5.47914L24.5 19.3066ZM24.5 16.3571L45.4393 3.14286H3.56067L24.5 16.3571ZM2.72222 5.48179V3.14286V33.2318C2.72222 33.7057 2.8792 34.0951 3.19317 34.3999C3.50713 34.7047 3.90911 34.8571 4.39911 34.8571H2.72222V5.48179Z" fill="#2D2D2D"/>
</svg>
